<svg xmlns="http://www.w3.org/2000/svg" viewBox="0 0 330 336">
	<path d="M244.28 9.22c8.65-6.87 21.41-7.77 31.06-2.46 11.48 5.73 18.01 19.87 14.8 32.31-2.2 10.4-10.58 19.6-21.1 21.85-7.75 2-16.29.5-23.02-3.77-7.7-4.83-12.6-13.57-13.23-22.58-18.97 1.42-38.22 8.76-51.39 22.85-12.69 13.78-16.9 33.33-15.49 51.59 28.39-1.05 57 4.02 83.16 15.15 6.62-6.72 15.51-11.24 24.93-12.19 13.17-1.85 27.21 2.98 36.25 12.78 8.07 8.13 12.56 19.77 11.79 31.23.36 8.21-3.19 15.84-7.04 22.85 6.11 11.55 10.66 24.17 11.22 37.34 2.31 27.88-11.26 55.03-31.24 73.82-29.21 27.52-69.34 41.08-108.89 43.52-30.16 1.67-60.87-2.96-88.67-14.96-20.57-8.73-39.5-21.84-53.79-39.11-12.16-14.86-20.69-33.19-21.85-52.51-.88-10.59.81-21.27 3.87-31.41-6.1-4.94-11.98-10.48-15.64-17.53-7.7-13.5-8.7-30.31-3.68-44.91 4.71-11.85 14.22-21.56 25.71-27.01 13.46-6.63 29.82-6.81 43.49-.64 8.82 3.66 15.85 10.45 21.58 17.94 16.23-6.8 33.45-10.99 50.88-13.29-.19-19.64 5.1-40 17.73-55.39C181.88 34.87 208.29 25.8 233.3 26c1.92-6.49 5.34-12.79 10.98-16.78z" fill="#5b5b5b"/>
	<path d="M29.07 130.98c10.4-13.17 30.61-16.68 44.95-8.04 7.88 4.19 12.81 11.84 17.27 19.27 9.71-4.87 19.5-9.66 29.88-12.98 42.01-13.76 88.97-12.33 129.9 4.53 6.57-8.11 16.4-13.89 27-14.1 14-.74 27.8 8.05 33.23 20.94 4.42 9.74 3.65 21.31-1.36 30.68-5.23-5.21-10.62-10.38-16.94-14.26-1.36-.88-2.93-1.35-4.5-1.68 1.36 2.87 3.96 4.77 5.99 7.11 6.59 7.56 11.38 16.45 15.7 25.44 7.55 16.26 9.22 35.23 4.02 52.44-6.15 21.08-21.22 38.49-38.93 50.95-26.85 18.72-59.71 27.69-92.22 28.47-33.04.84-66.74-6.47-95.2-23.65-17.67-10.77-33.44-25.74-42.17-44.76-8.43-18.02-8.98-39.32-2.32-57.98 4.98-9.85 11.05-19.25 18.55-27.39 2.65-2.97 6.15-5.02 8.76-8.01.01-2.42-2.57-3.11-4.34-1.89-12.49 6.15-22.28 16.47-31.12 26.99-7.91-5.6-13.63-14.33-14.92-24-1.66-10.13 2.79-20.16 8.77-28.08zM253.38 10.6c11.42-4.42 25.37 3.34 27.61 15.35 2.85 11.33-5.8 23.06-17.01 25.05-11.36 2.49-23.51-6.38-24.63-17.93-1.48-9.61 4.98-19.35 14.03-22.47z" fill="#fff"/>
	<path d="M261.32 265.39c2.7-1.83 6.74.49 6.59 3.74.18 3.02-2.79 4.41-4.96 5.72-24.17 13.57-52.41 19.17-79.97 17.68-19.93-1.09-39.61-5.84-58-13.54-4.55-1.61-5.24-8.59-1.16-11.11 2.69-2.14 6.15-.83 8.9.44 26.03 11.36 55.14 16.13 83.36 12.12 15.81-2.27 31.35-7.09 45.24-15.05z" fill="#5b5b5b"/>
	<path d="M134.44 181.61c11.79-3.74 25.23 2.02 31.4 12.55 4.36 6.9 5.43 15.57 3.7 23.47-1.95 8.64-8.1 16.31-16.33 19.7-8.73 3.6-19.34 2.21-26.76-3.67-10.39-7.83-14.42-22.7-9.87-34.81 2.86-8.08 9.59-14.81 17.86-17.24zm106.93 2.04c11.75-3.81 25.12 2.65 30.42 13.57 4.22 8.17 4.29 18.4-.11 26.5-4.39 8.59-14.08 14.21-23.75 13.28-12.62-.55-23.08-11.73-24.41-24.01-1.9-12.34 5.59-25.82 17.85-29.34z" fill="#ee442b"/>
</svg>
